<svg xmlns="http://www.w3.org/2000/svg" xml:space="preserve" width="110" height="70" version="1.1"
viewBox="0 0 2910 1852"
 xmlns:xlink="http://www.w3.org/1999/xlink">
 <defs>
  <style type="text/css">
   <![CDATA[
    .fil1 {fill:#FEFEFE;fill-rule:nonzero}
    .fil0 {fill:#E62134;fill-rule:nonzero}
   ]]>
  </style>
 </defs>
 <g id="Layer_x0020_1">
  <metadata id="CorelCorpID_0Corel-Layer"/>
  <polygon class="fil0" points="-0,1852 2910,1852 2910,0 -0,0 "/>
  <g id="_2836119181152">
   <g>
    <path class="fil1" d="M2667.08 1125.24l0 -87.44 -16.24 0 -43.1 55.59 0 -55.59 -18.73 0 0 87.44 16.24 0 43.09 -55.59 0 55.59 18.74 0zm-39.35 -109.3c-4.37,0 -7.5,-3.12 -7.5,-7.5l-12.49 0c0,11.24 8.12,19.37 19.99,19.37 11.87,0 19.99,-8.13 19.99,-19.37l-12.5 0c0,4.38 -3.12,7.5 -7.49,7.5zm-65.05 109.3l0 -87.44 -16.24 0 -43.09 55.59 0 -55.59 -18.74 0 0 87.44 16.24 0 43.09 -55.59 0 55.59 18.74 0zm-153.74 0l18.74 0 0 -70.58 40.6 0 0 -16.86 -59.34 0 0 87.44zm-113.19 -43.72c0,24.98 20.61,45.59 47.47,45.59 26.86,0 47.47,-20.61 47.47,-45.59 0,-24.98 -20.61,-45.59 -47.47,-45.59 -26.86,0 -47.47,20.61 -47.47,45.59zm19.36 0c0,-16.24 12.49,-28.73 28.11,-28.73 15.61,0 28.1,12.49 28.1,28.73 0,16.24 -12.49,28.73 -28.1,28.73 -15.62,0 -28.11,-12.49 -28.11,-28.73zm-37.62 -43.72l-63.08 0 0 26.98c0,37.34 -6.24,43.59 -14.99,43.59 -3.12,0 -6.24,-1.25 -6.24,-1.25l0 17.87c0,0 4.99,2.12 11.24,2.12 16.86,0 28.73,-11.86 28.73,-62.46l0 -9.99 25.61 0 0 70.58 18.73 0 0 -87.44zm-186.26 43.72c0,24.98 20.61,45.59 47.46,45.59 26.86,0 47.47,-20.61 47.47,-45.59 0,-24.98 -20.61,-45.59 -47.47,-45.59 -26.85,0 -47.46,20.61 -47.46,45.59zm19.36 0c0,-16.24 12.49,-28.73 28.1,-28.73 15.62,0 28.11,12.49 28.11,28.73 0,16.24 -12.49,28.73 -28.11,28.73 -15.61,0 -28.1,-12.49 -28.1,-28.73zm-37.62 -43.72l-18.74 0 0 34.97 -37.47 0 0 -34.97 -18.74 0 0 87.44 18.74 0 0 -35.6 37.47 0 0 35.6 18.74 0 0 -87.44zm-133.75 55.59l21.24 31.85 21.23 0 -30.6 -45.6 28.1 -41.84 -21.23 0 -18.74 28.1 -18.74 -28.1 -21.23 0 28.1 41.84 -30.6 45.6 21.23 0 21.24 -31.85zm-100.65 14.98l0 -19.36 35.6 0 0 -16.86 -35.6 0 0 -17.49 45.59 0 0 -16.86 -64.33 0 0 87.44 65.58 0 0 -16.87 -46.84 0zm-105.02 -70.57l0 16.86 24.99 0 0 70.58 18.73 0 0 -70.58 24.98 0 0 -16.86 -68.7 0z"/>
    <path class="fil1" d="M2696.33 933.33l21.24 31.85 21.23 0 -30.6 -45.6 28.1 -41.84 -21.23 0 -18.74 28.1 -18.74 -28.1 -21.23 0 28.1 41.84 -30.6 45.6 21.23 0 21.24 -31.85zm-135.63 14.98l0 -24.98 16.24 0c7.5,0 13.12,5.62 13.12,12.49 0,6.87 -5.63,12.49 -13.12,12.49l-16.24 0zm16.87 16.87c18.11,0 31.23,-12.87 31.23,-29.36 0,-16.61 -13.12,-29.35 -31.23,-29.35l-16.87 0 0 -28.73 -18.73 0 0 87.44 35.6 0zm59.95 -87.44l-18.73 0 0 87.44 18.73 0 0 -87.44zm-149.99 15.61c6.25,0 10,3.75 10,9.37 0,5.62 -3.76,9.37 -10,9.37l-17.48 0 0 -18.74 17.48 0zm-17.48 56.21l0 -22.48 19.98 0c6.87,0 11.87,5 11.87,11.24 0,6.25 -5,11.24 -11.87,11.24l-19.98 0zm20.86 15.62c17.86,0 29.73,-12.12 29.73,-25.61 0,-14.99 -14.37,-20.61 -14.37,-20.61 0,0 10,-5.62 10,-18.11 0,-11.87 -11.25,-23.11 -27.49,-23.11l-37.47 0 0 87.44 39.6 0zm-152.79 -43.72c0,24.98 20.61,45.59 47.46,45.59 26.86,0 47.47,-20.61 47.47,-45.59 0,-24.99 -20.61,-45.6 -47.47,-45.6 -26.85,0 -47.46,20.61 -47.46,45.6zm19.36 0c0,-16.24 12.49,-28.73 28.1,-28.73 15.62,0 28.11,12.49 28.11,28.73 0,16.23 -12.49,28.73 -28.11,28.73 -15.61,0 -28.1,-12.5 -28.1,-28.73zm-66.98 -45.6c-26.85,0 -47.46,20.61 -47.46,45.6 0,24.98 20.61,45.59 47.46,45.59 24.36,0 36.86,-17.49 36.86,-17.49l-11.25 -11.87c0,0 -8.74,12.5 -25.61,12.5 -16.23,0 -28.72,-12.5 -28.72,-28.73 0,-16.24 12.49,-28.73 28.72,-28.73 16.25,0 24.36,12.49 24.36,12.49l11.87 -11.87c0,0 -11.87,-17.49 -36.23,-17.49zm-68.79 1.88l-18.74 0 0 34.97 -37.47 0 0 -34.97 -18.74 0 0 87.44 18.74 0 0 -35.6 37.47 0 0 35.6 18.74 0 0 -87.44zm-118.76 66.83l7.5 20.61 19.98 0 -34.35 -87.44 -19.98 0 -34.36 87.44 19.99 0 7.49 -20.61 33.73 0zm-6.24 -16.24l-21.24 0 10.62 -28.73 10.62 28.73zm-71.3 -50.59l-18.73 0 0 34.97 -37.48 0 0 -34.97 -18.74 0 0 87.44 18.74 0 0 -35.6 37.48 0 0 35.6 18.73 0 0 -87.44zm-101.27 87.44l0 -87.44 -16.24 0 -43.09 55.59 0 -55.59 -18.74 0 0 87.44 16.24 0 43.09 -55.59 0 55.59 18.74 0zm-116.89 -44.97c0,11.24 -8.12,19.36 -21.23,19.98l0 -39.97c13.11,0.63 21.23,8.75 21.23,19.99zm-21.23 36.22c23.73,-0.62 39.97,-16.86 39.97,-36.22 0,-19.36 -16.24,-35.6 -39.97,-36.23l0 -9.36 -18.74 0 0 9.36c-23.73,0.63 -39.97,16.87 -39.97,36.23 0,19.36 16.24,35.6 39.97,36.22l0 11.25 18.74 0 0 -11.25zm-39.98 -36.22c0,-11.24 8.12,-19.36 21.24,-19.99l0 39.97c-13.12,-0.62 -21.24,-8.74 -21.24,-19.98z"/>
    <path class="fil1" d="M2137.39 734.56c7.5,0 13.12,5.62 13.12,12.5 0,6.86 -5.62,12.49 -13.12,12.49l-17.48 0 0 -24.99 17.48 0zm-36.22 -16.86l0 87.44 18.74 0 0 -28.73 18.11 0c18.11,0 31.23,-12.74 31.23,-29.35 0,-16.49 -13.12,-29.36 -31.23,-29.36l-36.85 0zm-86.28 0l0 16.86 24.98 0 0 70.58 18.74 0 0 -70.58 24.98 0 0 -16.86 -68.7 0zm-17.58 0l-18.74 0 0 34.97 -37.47 0 0 -34.97 -18.74 0 0 87.44 18.74 0 0 -35.6 37.47 0 0 35.6 18.74 0 0 -87.44zm-143.12 70.58l0 -19.37 35.6 0 0 -16.86 -35.6 0 0 -17.49 45.59 0 0 -16.86 -64.33 0 0 87.44 65.58 0 0 -16.86 -46.84 0zm-120.64 16.86l64.96 0 0 18.11 18.74 0 0 -34.97 -10.62 0 0 -70.58 -18.74 0 0 70.58 -35.6 0 0 -70.58 -18.74 0 0 87.44z"/>
   </g>
   <g>
    <path class="fil1" d="M898.8 1125.22l100.17 0 0 -30.33c105.83,0 187.6,-57.85 187.6,-170.79 0,-111.76 -82.58,-170.79 -187.6,-170.79l0 -35.55 -100.17 0 0 35.55c-105.89,0 -187.6,57.73 -187.6,170.79 0,112.26 82.23,170.79 187.6,170.79l0 30.33zm100.17 -113.21l0 -175.81c55.41,0 94.37,29.31 94.37,87.9 0,59.19 -38.49,87.91 -94.37,87.91zm-195.13 -87.91c0,-58.61 39.68,-87.9 94.96,-87.9l0 175.81c-55.74,0 -94.96,-28.71 -94.96,-87.91z"/>
    <polygon class="fil1" points="1555.73,717.77 1222.65,717.77 1222.65,808.57 1338.35,808.57 1338.35,1125.22 1439.44,1125.22 1439.44,808.57 1555.73,808.57 "/>
    <polygon class="fil1" points="520.22,1035 386.88,1035 386.88,717.77 286.92,717.77 286.92,1125.22 574.39,1125.22 574.39,1168.31 665.27,1168.31 678.21,1035 620.75,1035 620.75,717.77 520.22,717.77 "/>
   </g>
  </g>
 </g>
</svg>
